<svg xmlns="http://www.w3.org/2000/svg" xmlns:xlink="http://www.w3.org/1999/xlink" viewBox="0,0,256,256" width="150px" height="150px" fill-rule="nonzero"><g fill="#242424" fill-rule="nonzero" stroke="none" stroke-width="1" stroke-linecap="butt" stroke-linejoin="miter" stroke-miterlimit="10" stroke-dasharray="" stroke-dashoffset="0" font-family="none" font-weight="none" font-size="none" text-anchor="none" style="mix-blend-mode: normal"><g transform="scale(5.12,5.12)"><path d="M25,2c-12.70312,0 -23,10.29688 -23,23c0,12.70313 10.29688,23 23,23c12.70313,0 23,-10.29687 23,-23c0,-12.70312 -10.29687,-23 -23,-23zM22.28125,19.125l1.84375,1.4375l-4.5625,3.5625l0.875,0.6875l4.5625,-3.5625l1.84375,1.4375l-4.5625,3.59375l0.875,0.6875l4.5625,-3.59375v-3.28125h3.28125v6.6875h3.3125v2.78125h-6.59375v-3.28125l-5.4375,4.25l-4.96875,-3.90625c-0.71484,1.72266 -2.4375,2.9375 -4.4375,2.9375h-4.25v-9.46875h4.25c2.23047,0 3.83594,1.42578 4.4375,2.9375zM35.1875,20.09375h3.28125v6.6875h3.3125v2.78125h-6.59375zM11.8125,22.8125v4.03125h0.71875c1.11719,0 2.0625,-0.62891 2.0625,-2.03125c0,-1.28516 -0.86328,-2 -2.0625,-2z"></path></g></g></svg>